<svg width="57" height="56" viewBox="0 0 57 56" fill="none" xmlns="http://www.w3.org/2000/svg">
<circle cx="28.5" cy="28" r="24" fill="url(#paint0_linear_308_653)"/>
<mask id="path-2-inside-1_308_653" fill="white">
<path fill-rule="evenodd" clip-rule="evenodd" d="M13.9299 17.8221C13.167 19.3194 13.167 21.2796 13.167 25.2V26.2V36.3667V36.3667V39.9318C13.167 40.8672 14.298 41.3357 14.9595 40.6742L19.267 36.3667C19.267 36.3667 19.267 36.3667 19.267 36.3667C19.267 36.3667 19.267 36.3667 19.267 36.3667H32.4837C36.3883 36.3667 38.3406 36.3667 39.8333 35.6096C41.1596 34.9369 42.2373 33.8593 42.91 32.5329C43.667 31.0403 43.667 29.088 43.667 25.1833C43.667 21.2787 43.667 19.3264 42.91 17.8337C42.2373 16.5074 41.1596 15.4297 39.8333 14.757C38.3406 14 36.3883 14 32.4837 14H24.367C20.4466 14 18.4864 14 16.9891 14.763C15.6719 15.4341 14.6011 16.5049 13.9299 17.8221Z"/>
</mask>
<path d="M13.9299 17.8221L-0.326158 10.5582V10.5582L13.9299 17.8221ZM14.9595 40.6742L26.2731 51.988L26.2732 51.9879L14.9595 40.6742ZM39.8333 35.6096L47.0704 49.8793L47.0704 49.8793L39.8333 35.6096ZM42.91 32.5329L57.1796 39.7701L57.1796 39.7701L42.91 32.5329ZM42.91 17.8337L57.1796 10.5966V10.5966L42.91 17.8337ZM39.8333 14.757L47.0704 0.487356L47.0704 0.487352L39.8333 14.757ZM16.9891 14.763L9.72521 0.50685H9.72521L16.9891 14.763ZM35.267 36.3667C35.267 27.5301 28.1035 20.3667 19.267 20.3667C10.4304 20.3667 3.26699 27.5301 3.26699 36.3667H35.267ZM19.267 36.3667L30.5807 47.6804L19.267 36.3667ZM29.167 25.2C29.167 24.1834 29.1674 23.4623 29.1769 22.8553C29.1815 22.5661 29.1875 22.3484 29.1942 22.1822C29.2009 22.0158 29.2072 21.9305 29.2092 21.9053C29.2152 21.8323 29.1944 22.1641 29.0628 22.7229C28.9193 23.3324 28.6562 24.1632 28.1861 25.0859L-0.326158 10.5582C-2.04845 13.9384 -2.50829 17.1428 -2.6845 19.2995C-2.84545 21.2694 -2.83301 23.5038 -2.83301 25.2H29.167ZM29.167 26.2V25.2H-2.83301V26.2H29.167ZM-2.83301 26.2V36.3667H29.167V26.2H-2.83301ZM-2.83301 36.3667V36.3667H29.167V36.3667H-2.83301ZM-2.83301 36.3667V39.9318H29.167V36.3667H-2.83301ZM-2.83301 39.9318C-2.83301 55.1217 15.5322 62.7288 26.2731 51.988L3.64576 29.3605C13.0637 19.9426 29.167 26.6128 29.167 39.9318H-2.83301ZM26.2732 51.9879L30.5807 47.6804L7.95328 25.053L3.64574 29.3605L26.2732 51.9879ZM32.4837 20.3667H19.267V52.3667H32.4837V20.3667ZM32.5961 21.34C33.5164 20.8732 34.3442 20.6122 34.9511 20.4699C35.5076 20.3394 35.8379 20.3188 35.7651 20.3248C35.7401 20.3268 35.6551 20.333 35.4893 20.3396C35.3238 20.3463 35.1069 20.3523 34.8189 20.3568C34.2143 20.3663 33.4962 20.3667 32.4837 20.3667V52.3667C34.173 52.3667 36.3985 52.379 38.3608 52.2193C40.5088 52.0445 43.7005 51.5884 47.0704 49.8793L32.5961 21.34ZM28.6403 25.2958C29.5052 23.5904 30.8908 22.2049 32.5961 21.34L47.0704 49.8793C51.4285 47.669 54.9693 44.1282 57.1796 39.7701L28.6403 25.2958ZM27.667 25.1833C27.667 26.1959 27.6666 26.914 27.6571 27.5186C27.6526 27.8066 27.6466 28.0235 27.64 28.189C27.6333 28.3547 27.6271 28.4397 27.6251 28.4648C27.6192 28.5376 27.6397 28.2073 27.7702 27.6508C27.9126 27.0439 28.1735 26.2161 28.6403 25.2958L57.1796 39.7701C58.8887 36.4002 59.3448 33.2084 59.5196 31.0605C59.6793 29.0982 59.667 26.8727 59.667 25.1833H27.667ZM28.6403 25.0709C28.1735 24.1506 27.9126 23.3228 27.7702 22.7159C27.6397 22.1594 27.6192 21.8291 27.6251 21.9019C27.6271 21.9269 27.6333 22.0119 27.64 22.1777C27.6466 22.3432 27.6526 22.5601 27.6571 22.8481C27.6666 23.4527 27.667 24.1708 27.667 25.1833H59.667C59.667 23.4939 59.6793 21.2685 59.5196 19.3062C59.3448 17.1582 58.8887 13.9664 57.1796 10.5966L28.6403 25.0709ZM32.5961 29.0267C30.8908 28.1618 29.5052 26.7762 28.6403 25.0709L57.1796 10.5966C54.9693 6.2385 51.4285 2.69765 47.0704 0.487356L32.5961 29.0267ZM32.4837 30C33.4962 30 34.2143 30.0004 34.8189 30.0099C35.1069 30.0144 35.3238 30.0204 35.4893 30.027C35.6551 30.0337 35.7401 30.0399 35.7651 30.0419C35.8379 30.0478 35.5076 30.0272 34.9511 29.8967C34.3442 29.7544 33.5164 29.4934 32.5961 29.0267L47.0704 0.487352C43.7005 -1.22175 40.5088 -1.67784 38.3608 -1.85265C36.3985 -2.01235 34.173 -2 32.4837 -2V30ZM24.367 30H32.4837V-2H24.367V30ZM24.2529 29.0191C23.3302 29.4892 22.4994 29.7523 21.8899 29.8958C21.3311 30.0274 20.9993 30.0482 21.0723 30.0422C21.0974 30.0402 21.1828 30.034 21.3492 30.0272C21.5154 30.0205 21.7331 30.0145 22.0223 30.0099C22.6293 30.0004 23.3504 30 24.367 30V-2C22.6708 -2 20.4364 -2.01244 18.4665 -1.85149C16.3098 -1.67528 13.1054 -1.21544 9.72521 0.50685L24.2529 29.0191ZM28.1861 25.0859C27.3232 26.7794 25.9464 28.1562 24.2529 29.0191L9.72521 0.50685C5.39748 2.71194 1.87893 6.23049 -0.326158 10.5582L28.1861 25.0859ZM35.267 36.3667C35.267 44.9602 28.3447 52.3667 19.267 52.3667V20.3667C10.1893 20.3667 3.26699 27.7732 3.26699 36.3667H35.267ZM30.5807 47.6804C33.5816 44.6795 35.267 40.6097 35.267 36.3667H3.26699C3.26699 32.1237 4.95237 28.0539 7.95328 25.053L30.5807 47.6804Z" fill="white" mask="url(#path-2-inside-1_308_653)"/>
<defs>
<linearGradient id="paint0_linear_308_653" x1="28.5" y1="4" x2="28.5" y2="52" gradientUnits="userSpaceOnUse">
<stop offset="0.463542" stop-color="#2B2A2A"/>
<stop offset="1"/>
</linearGradient>
</defs>
</svg>
