<svg width="57" height="56" viewBox="0 0 57 56" fill="none" xmlns="http://www.w3.org/2000/svg">
<circle cx="29.5" cy="28" r="24" fill="url(#paint0_linear_308_650)"/>
<path d="M34.8439 27.8627C34.3177 28.4295 33.7506 29.1598 33.3648 30.1426L33.3648 30.1427C33.2491 30.4373 33.1529 30.7392 33.0769 31.0465C32.8506 31.9607 32.8584 32.7943 32.9351 33.5079C32.2412 33.0763 31.3754 32.6586 30.306 32.4886C29.5508 32.3685 28.7813 32.3685 28.0261 32.4886C26.9567 32.6586 26.0909 33.0763 25.3969 33.5079C25.4736 32.7943 25.4814 31.9607 25.2551 31.0465C25.1791 30.7392 25.0829 30.4373 24.9673 30.1427C24.5815 29.1598 24.0143 28.4295 23.4882 27.8627C23.1585 27.5076 22.7713 27.1416 22.384 26.7867C22.829 26.7373 23.2661 26.6781 23.6694 26.6002C24.5806 26.424 25.6398 26.1001 26.657 25.347L24.2768 22.1322L26.657 25.347C27.6752 24.5931 28.294 23.6737 28.7279 22.8517C28.879 22.5654 29.0248 22.2558 29.166 21.9364C29.3072 22.2558 29.453 22.5654 29.6041 22.8517C30.038 23.6737 30.6568 24.5931 31.675 25.347C32.6923 26.1001 33.7514 26.424 34.6626 26.6002C35.0659 26.6781 35.503 26.7373 35.948 26.7867C35.5607 27.1416 35.1735 27.5076 34.8439 27.8627ZM18.8272 23.4317C18.8275 23.4317 18.8311 23.4366 18.8374 23.4462C18.8302 23.4364 18.827 23.4316 18.8272 23.4317ZM17.5395 27.3218C17.5289 27.3256 17.5232 27.3272 17.523 27.3271C17.5228 27.327 17.5281 27.3252 17.5395 27.3218ZM27.0714 17.0762C27.0715 17.076 27.0744 17.08 27.0802 17.0886C27.0743 17.0807 27.0714 17.0764 27.0714 17.0762ZM31.2606 17.0762C31.2606 17.0764 31.2577 17.0807 31.2518 17.0886C31.2576 17.08 31.2606 17.076 31.2606 17.0762ZM40.809 27.3271C40.8088 27.3272 40.8032 27.3256 40.7926 27.3219C40.8039 27.3252 40.8092 27.327 40.809 27.3271ZM39.4946 23.4462C39.5009 23.4366 39.5046 23.4317 39.5048 23.4317C39.505 23.4316 39.5019 23.4364 39.4946 23.4462Z" stroke="white" stroke-width="8"/>
<defs>
<linearGradient id="paint0_linear_308_650" x1="29.5" y1="4" x2="29.5" y2="52" gradientUnits="userSpaceOnUse">
<stop offset="0.463542" stop-color="#2B2A2A"/>
<stop offset="1"/>
</linearGradient>
</defs>
</svg>
