<svg width="33" height="30" viewBox="0 0 33 30" fill="none" xmlns="http://www.w3.org/2000/svg">
<path fill-rule="evenodd" clip-rule="evenodd" d="M16.2348 18.8823C18.7099 18.8823 20.5877 17.0361 20.5877 14.9117C20.5877 12.7874 18.7099 10.9412 16.2348 10.9412C13.7596 10.9412 11.8818 12.7874 11.8818 14.9117C11.8818 17.0361 13.7596 18.8823 16.2348 18.8823ZM16.2348 19.8823C19.1911 19.8823 21.5877 17.6569 21.5877 14.9117C21.5877 12.1666 19.1911 9.94116 16.2348 9.94116C13.2784 9.94116 10.8818 12.1666 10.8818 14.9117C10.8818 17.6569 13.2784 19.8823 16.2348 19.8823Z" fill="#797979"/>
<path d="M19.5877 14.9117C19.5877 16.4202 18.2235 17.8823 16.2348 17.8823V19.8823C19.1963 19.8823 21.5877 17.6521 21.5877 14.9117H19.5877ZM16.2348 11.9412C18.2235 11.9412 19.5877 13.4033 19.5877 14.9117H21.5877C21.5877 12.1714 19.1963 9.94116 16.2348 9.94116V11.9412ZM12.8818 14.9117C12.8818 13.4033 14.2461 11.9412 16.2348 11.9412V9.94116C13.2732 9.94116 10.8818 12.1714 10.8818 14.9117H12.8818ZM16.2348 17.8823C14.2461 17.8823 12.8818 16.4202 12.8818 14.9117H10.8818C10.8818 17.6521 13.2732 19.8823 16.2348 19.8823V17.8823ZM20.5877 14.9117C20.5877 17.0361 18.7099 18.8823 16.2348 18.8823V20.8823C19.6723 20.8823 22.5877 18.2777 22.5877 14.9117H20.5877ZM16.2348 10.9412C18.7099 10.9412 20.5877 12.7874 20.5877 14.9117H22.5877C22.5877 11.5458 19.6723 8.94116 16.2348 8.94116V10.9412ZM11.8818 14.9117C11.8818 12.7874 13.7596 10.9412 16.2348 10.9412V8.94116C12.7972 8.94116 9.88184 11.5458 9.88184 14.9117H11.8818ZM16.2348 18.8823C13.7596 18.8823 11.8818 17.0361 11.8818 14.9117H9.88184C9.88184 18.2777 12.7972 20.8823 16.2348 20.8823V18.8823Z" fill="#797979"/>
<path fill-rule="evenodd" clip-rule="evenodd" d="M11.6313 18.9861C13.0967 19.8257 14.6605 20.3676 16.2349 20.3676C17.6398 20.3676 19.0363 19.9361 20.3619 19.2465L19.577 18.6138L22.25 14.0315C21.5211 13.4739 20.7583 12.8951 20.0521 12.367C19.3089 11.8111 18.6349 11.3164 18.1312 10.9627C17.8854 10.7901 17.6905 10.6584 17.5522 10.5712C17.4546 10.5778 17.3334 10.5868 17.1925 10.5977C16.8615 10.6232 16.432 10.6588 15.9662 10.6986C15.2311 10.7613 14.4103 10.834 13.7529 10.8931L10.8996 15.3315L12.5208 18.2496L11.6313 18.9861ZM11.2756 11.0482C11.2654 11.0544 11.2552 11.0607 11.245 11.067L11.2558 11.0789L11.2756 11.0482ZM9.139 14.3718L8.58108 14.879L8.73206 15.0048L8.89369 14.7533L9.139 14.3718ZM28.0195 14.9118C28.0195 14.5383 27.8031 14.2889 27.3701 13.79C25.5633 11.708 21.2582 7.45587 16.2349 7.45587C11.2115 7.45587 6.90644 11.708 5.09964 13.79C4.66668 14.2889 4.4502 14.5383 4.4502 14.9118C4.4502 15.2852 4.66668 15.5346 5.09964 16.0335C6.90644 18.1155 11.2115 22.3676 16.2349 22.3676C21.2582 22.3676 25.5633 18.1155 27.3701 16.0335C27.8031 15.5346 28.0195 15.2852 28.0195 14.9118Z" fill="#797979"/>
<path d="M11.6313 18.9861L10.9936 18.2159L9.88198 19.1363L11.1342 19.8538L11.6313 18.9861ZM20.3619 19.2465L20.8234 20.1337L22.1803 19.4279L20.9895 18.468L20.3619 19.2465ZM19.577 18.6138L18.7132 18.1099L18.2799 18.8526L18.9494 19.3923L19.577 18.6138ZM22.25 14.0315L23.1137 14.5354L23.5583 13.7733L22.8575 13.2373L22.25 14.0315ZM20.0521 12.367L19.4532 13.1678L19.4532 13.1678L20.0521 12.367ZM18.1312 10.9627L17.5565 11.7811L18.1312 10.9627ZM17.5522 10.5712L18.0856 9.72537L17.8098 9.55139L17.4844 9.57351L17.5522 10.5712ZM17.1925 10.5977L17.2696 11.5947H17.2696L17.1925 10.5977ZM15.9662 10.6986L15.8812 9.70219H15.8812L15.9662 10.6986ZM13.7529 10.8931L13.6633 9.89712L13.1762 9.94093L12.9117 10.3523L13.7529 10.8931ZM10.8996 15.3315L10.0584 14.7908L9.73487 15.2941L10.0255 15.8172L10.8996 15.3315ZM12.5208 18.2496L13.1585 19.0199L13.7983 18.4901L13.3949 17.764L12.5208 18.2496ZM11.245 11.067L10.721 10.2152L9.69373 10.8472L10.505 11.7396L11.245 11.067ZM11.2756 11.0482L12.1168 11.589L10.7536 10.1952L11.2756 11.0482ZM11.2558 11.0789L10.5159 11.7516L11.3924 12.7158L12.097 11.6197L11.2558 11.0789ZM8.58108 14.879L7.90841 14.139L7.0584 14.9118L7.9409 15.6472L8.58108 14.879ZM9.139 14.3718L9.98017 14.9125L8.46632 13.6318L9.139 14.3718ZM8.73206 15.0048L8.09188 15.773L8.96127 16.4975L9.57324 15.5455L8.73206 15.0048ZM8.89369 14.7533L8.05251 14.2126H8.05251L8.89369 14.7533ZM27.3701 13.79L28.1253 13.1346V13.1346L27.3701 13.79ZM5.09964 13.79L4.34439 13.1346L5.09964 13.79ZM5.09964 16.0335L4.34439 16.689L4.34439 16.689L5.09964 16.0335ZM27.3701 16.0335L26.6148 15.3781L26.6148 15.3781L27.3701 16.0335ZM7.0584 14.9118L6.38572 14.1718L5.53571 14.9446L6.41821 15.68L7.0584 14.9118ZM11.6466 18.7353L11.0064 19.5035L12.5208 18.2496L11.6466 18.7353ZM9.73487 15.2941L8.89369 14.7533L8.57012 15.2567L8.86071 15.7797L9.73487 15.2941ZM13.176 9.94117L13.0855 8.94527L12.599 8.9895L12.3349 9.40041L13.176 9.94117ZM25.029 14.9118L25.7047 15.6489L26.5772 14.8491L25.6429 14.1224L25.029 14.9118ZM20.4407 19.1176L19.577 18.6138L21.1165 19.8548L20.4407 19.1176ZM16.2349 19.3676C14.8884 19.3676 13.497 18.9026 12.1285 18.1184L11.1342 19.8538C12.6964 20.7489 14.4325 21.3676 16.2349 21.3676V19.3676ZM19.9005 18.3594C18.6728 18.998 17.4355 19.3676 16.2349 19.3676V21.3676C17.8441 21.3676 19.3998 20.8742 20.8234 20.1337L19.9005 18.3594ZM18.9494 19.3923L19.7343 20.0251L20.9895 18.468L20.2046 17.8352L18.9494 19.3923ZM21.3862 13.5276L18.7132 18.1099L20.4407 19.1176L23.1137 14.5354L21.3862 13.5276ZM19.4532 13.1678C20.1557 13.6931 20.9154 14.2696 21.6424 14.8258L22.8575 13.2373C22.1268 12.6782 21.361 12.0971 20.651 11.5662L19.4532 13.1678ZM17.5565 11.7811C18.0478 12.1261 18.7123 12.6137 19.4532 13.1678L20.651 11.5662C19.9055 11.0086 19.222 10.5067 18.7058 10.1443L17.5565 11.7811ZM17.0188 11.417C17.1363 11.4912 17.3155 11.6119 17.5565 11.7811L18.7058 10.1443C18.4554 9.96843 18.2447 9.82571 18.0856 9.72537L17.0188 11.417ZM17.2696 11.5947C17.4088 11.5839 17.5266 11.5753 17.62 11.5689L17.4844 9.57351C17.3825 9.58043 17.258 9.58962 17.1155 9.60063L17.2696 11.5947ZM16.0512 11.695C16.5161 11.6553 16.9425 11.62 17.2696 11.5947L17.1155 9.60063C16.7805 9.62652 16.348 9.66237 15.8812 9.70219L16.0512 11.695ZM13.8425 11.8891C14.499 11.83 15.3181 11.7575 16.0512 11.695L15.8812 9.70219C15.144 9.76509 14.3216 9.83791 13.6633 9.89712L13.8425 11.8891ZM11.7408 15.8723L14.5941 11.4339L12.9117 10.3523L10.0584 14.7908L11.7408 15.8723ZM13.3949 17.764L11.7738 14.8459L10.0255 15.8172L11.6466 18.7353L13.3949 17.764ZM12.2691 19.7563L13.1585 19.0199L11.883 17.4794L10.9936 18.2159L12.2691 19.7563ZM11.7689 11.9187C11.7785 11.9128 11.788 11.907 11.7975 11.9012L10.7536 10.1952C10.7427 10.2019 10.7318 10.2086 10.721 10.2152L11.7689 11.9187ZM11.9958 10.4063L11.9849 10.3943L10.505 11.7396L10.5159 11.7516L11.9958 10.4063ZM10.4344 10.5074L10.4146 10.5382L12.097 11.6197L12.1168 11.589L10.4344 10.5074ZM9.25376 15.6189L9.81167 15.1117L8.46632 13.6318L7.90841 14.139L9.25376 15.6189ZM9.37225 14.2365L9.22127 14.1107L7.9409 15.6472L8.09188 15.773L9.37225 14.2365ZM8.05251 14.2126L7.89088 14.464L9.57324 15.5455L9.73487 15.2941L8.05251 14.2126ZM8.29782 13.831L8.05251 14.2126L9.73487 15.2941L9.98017 14.9125L8.29782 13.831ZM26.6148 14.4454C26.7259 14.5734 26.8099 14.6704 26.8798 14.7559C26.9492 14.8409 26.9884 14.8951 27.0117 14.9319C27.0331 14.9658 27.0322 14.9715 27.0274 14.9567C27.0215 14.9383 27.0195 14.9199 27.0195 14.9118H29.0195C29.0195 14.0871 28.4727 13.5348 28.1253 13.1346L26.6148 14.4454ZM16.2349 8.45587C18.4673 8.45587 20.6017 9.4044 22.4432 10.667C24.2776 11.9246 25.7425 13.4402 26.6148 14.4454L28.1253 13.1346C27.1909 12.0578 25.5999 10.4063 23.5742 9.01744C21.5556 7.63342 19.0258 6.45587 16.2349 6.45587V8.45587ZM5.85489 14.4454C6.72723 13.4402 8.19218 11.9246 10.0265 10.667C11.868 9.4044 14.0024 8.45587 16.2349 8.45587V6.45587C13.4439 6.45587 10.9142 7.63342 8.89557 9.01744C6.86984 10.4063 5.27885 12.0578 4.34439 13.1346L5.85489 14.4454ZM5.4502 14.9118C5.4502 14.9199 5.44826 14.9383 5.44229 14.9567C5.43753 14.9715 5.43662 14.9658 5.45807 14.9319C5.48129 14.8951 5.52048 14.8409 5.58996 14.7559C5.65979 14.6704 5.74384 14.5734 5.85489 14.4454L4.34439 13.1346C3.99705 13.5348 3.4502 14.0871 3.4502 14.9118H5.4502ZM5.85489 15.3781C5.74384 15.2501 5.65979 15.1531 5.58996 15.0676C5.52048 14.9826 5.48129 14.9284 5.45807 14.8916C5.43662 14.8577 5.43753 14.852 5.44229 14.8668C5.44826 14.8852 5.4502 14.9036 5.4502 14.9118H3.4502C3.4502 15.7365 3.99705 16.2887 4.34439 16.689L5.85489 15.3781ZM16.2349 21.3676C14.0024 21.3676 11.868 20.4191 10.0265 19.1565C8.19218 17.8989 6.72723 16.3833 5.85489 15.3781L4.34439 16.689C5.27885 17.7657 6.86984 19.4172 8.89557 20.8061C10.9142 22.1901 13.4439 23.3676 16.2349 23.3676V21.3676ZM26.6148 15.3781C25.7425 16.3833 24.2776 17.8989 22.4432 19.1565C20.6017 20.4191 18.4673 21.3676 16.2349 21.3676V23.3676C19.0258 23.3676 21.5556 22.1901 23.5742 20.8061C25.5999 19.4172 27.1909 17.7657 28.1253 16.689L26.6148 15.3781ZM27.0195 14.9118C27.0195 14.9036 27.0215 14.8852 27.0274 14.8668C27.0322 14.852 27.0331 14.8577 27.0117 14.8916C26.9884 14.9284 26.9492 14.9826 26.8798 15.0676C26.8099 15.1531 26.7259 15.2501 26.6148 15.3781L28.1253 16.689C28.4727 16.2887 29.0195 15.7365 29.0195 14.9118H27.0195ZM10.5916 10.3483L6.38572 14.1718L7.73107 15.6517L11.937 11.8282L10.5916 10.3483ZM6.41821 15.68L11.0064 19.5035L12.2868 17.9671L7.69858 14.1435L6.41821 15.68ZM12.5208 18.2496L10.609 14.8085L8.86071 15.7797L10.7725 19.2209L12.5208 18.2496ZM10.576 15.8349L14.0172 10.4819L12.3349 9.40041L8.89369 14.7533L10.576 15.8349ZM13.2666 10.9371C13.9664 10.8734 15.0351 10.778 15.9662 10.6986C16.432 10.6588 16.8615 10.6232 17.1925 10.5977C17.3583 10.5848 17.4969 10.5747 17.6018 10.5679C17.7196 10.5602 17.7645 10.5588 17.7643 10.5588V8.55881C17.5556 8.55881 16.6934 8.62926 15.7962 8.70582C14.8602 8.78568 13.7876 8.88144 13.0855 8.94527L13.2666 10.9371ZM17.7643 10.5588C17.5813 10.5588 17.4516 10.5044 17.4495 10.5036C17.4189 10.4919 17.4042 10.4837 17.4127 10.4881C17.428 10.496 17.4679 10.5184 17.5392 10.563C17.6782 10.6501 17.8776 10.7847 18.1312 10.9627C18.6349 11.3164 19.3089 11.8111 20.0521 12.367C21.5365 13.4771 23.2708 14.8112 24.415 15.7011L25.6429 14.1224C24.493 13.228 22.7479 11.8856 21.2499 10.7653C20.502 10.206 19.8091 9.69706 19.2805 9.32589C19.0178 9.14147 18.7847 8.98327 18.6011 8.86823C18.5111 8.81184 18.4171 8.7558 18.3294 8.71055C18.2864 8.68838 18.2279 8.65989 18.1615 8.63462C18.1237 8.62022 17.9664 8.55881 17.7643 8.55881V10.5588ZM24.3533 14.1746L19.765 18.3805L21.1165 19.8548L25.7047 15.6489L24.3533 14.1746ZM21.3045 19.6215L23.981 15.0333L22.2534 14.0255L19.577 18.6138L21.3045 19.6215Z" fill="#797979"/>
</svg>
