<svg width="42" height="40" viewBox="0 0 42 40" fill="none" xmlns="http://www.w3.org/2000/svg">
<path d="M17.7516 7.89867C18.6838 5.5747 19.3374 3.9528 19.9429 2.89716C20.5752 1.79478 20.8997 1.7675 21 1.7675C21.1003 1.7675 21.4248 1.79478 22.0571 2.89717C22.6626 3.9528 23.3162 5.5747 24.2484 7.89867L24.3339 8.11173L25.4167 7.6774L24.3339 8.11174L24.3564 8.16792C24.8557 9.4127 25.2633 10.4288 25.6826 11.2266C26.1207 12.0601 26.6147 12.743 27.3326 13.2768C28.0505 13.8106 28.8468 14.0869 29.7712 14.2664C30.6559 14.4382 31.7464 14.5358 33.0822 14.6554L33.1425 14.6608L33.644 14.7057C35.9534 14.9126 37.5541 15.0589 38.6486 15.3172C39.7751 15.583 39.9027 15.8638 39.9384 15.9699C39.974 16.0759 40.042 16.3768 39.3051 17.2693C38.5891 18.1365 37.4022 19.2204 35.6872 20.7807L34.5618 21.8045L34.5247 21.8383C33.7028 22.586 33.0313 23.197 32.5203 23.7497C31.9872 24.3265 31.5729 24.8974 31.3023 25.5897C31.2096 25.827 31.1325 26.0701 31.0715 26.3174L32.2043 26.5966L31.0715 26.3174C30.8936 27.0391 30.9031 27.7444 31.0064 28.523C31.1053 29.2692 31.302 30.1556 31.5427 31.2402L31.5536 31.2893L31.7091 31.9905C32.1747 34.0888 32.5012 35.568 32.622 36.6379C32.7516 37.7867 32.5805 38.0341 32.5561 38.0613C32.4062 38.2282 32.2115 38.3483 31.9952 38.4073C31.9599 38.4169 31.662 38.4588 30.6936 37.8274C29.7916 37.2393 28.6163 36.2837 26.9501 34.926L26.9062 34.8902C25.8642 34.0411 25.0189 33.3522 24.2782 32.8569C23.5098 32.3431 22.7694 31.9775 21.9198 31.8419C21.3105 31.7446 20.6896 31.7446 20.0803 31.8419C19.2306 31.9775 18.4902 32.3431 17.7218 32.8569C16.9812 33.3522 16.1359 34.0411 15.0939 34.8901L15.0499 34.926C13.3837 36.2837 12.2084 37.2393 11.3065 37.8274C10.338 38.4588 10.0401 38.4169 10.0048 38.4073C9.78852 38.3483 9.5938 38.2282 9.44397 38.0613C9.41952 38.0341 9.24842 37.7867 9.37807 36.6379C9.49882 35.568 9.82535 34.0888 10.2909 31.9905L10.4465 31.2893L10.4574 31.24C10.698 30.1555 10.8947 29.2692 10.9937 28.523C11.0969 27.7444 11.1064 27.0391 10.9285 26.3174L9.79577 26.5966L10.9285 26.3174C10.8676 26.0701 10.7905 25.827 10.6977 25.5897C10.4271 24.8974 10.0129 24.3265 9.47972 23.7497C8.9688 23.197 8.29724 22.586 7.47546 21.8384L7.43818 21.8045L6.31286 20.7807C4.59782 19.2204 3.41089 18.1365 2.69488 17.2693C1.95801 16.3768 2.02598 16.0759 2.06164 15.9699C2.0973 15.8638 2.22497 15.583 3.35142 15.3172C4.44598 15.0589 6.04663 14.9126 8.356 14.7057L8.85753 14.6608L8.91783 14.6554C10.2537 14.5358 11.3441 14.4382 12.2288 14.2664C13.1532 14.0869 13.9495 13.8106 14.6674 13.2768C15.3853 12.743 15.8793 12.0601 16.3174 11.2266C16.7367 10.4288 17.1443 9.41273 17.6436 8.16799L17.6661 8.11173L17.7516 7.89867Z" stroke="white" stroke-width="2.33333"/>
</svg>
