<svg width="49" height="49" viewBox="0 0 49 49" fill="none" xmlns="http://www.w3.org/2000/svg">
<path d="M24.667 48.75C37.9218 48.75 48.667 38.0048 48.667 24.75C48.667 11.4952 37.9218 0.75 24.667 0.75C11.4122 0.75 0.666992 11.4952 0.666992 24.75C0.666992 38.0048 11.4122 48.75 24.667 48.75Z" fill="black"/>
<path fill-rule="evenodd" clip-rule="evenodd" d="M16.4508 24.5C16.4508 19.9623 20.1293 16.2838 24.667 16.2838C29.2047 16.2838 32.8832 19.9623 32.8832 24.5C32.8832 29.0377 29.2047 32.7162 24.667 32.7162C20.1293 32.7162 16.4508 29.0377 16.4508 24.5ZM24.667 29.8333C21.7215 29.8333 19.3337 27.4455 19.3337 24.5C19.3337 21.5545 21.7215 19.1667 24.667 19.1667C27.6125 19.1667 30.0003 21.5545 30.0003 24.5C30.0003 27.4455 27.6125 29.8333 24.667 29.8333Z" fill="white"/>
<path d="M33.2078 17.8791C34.2682 17.8791 35.1278 17.0196 35.1278 15.9592C35.1278 14.8988 34.2682 14.0391 33.2078 14.0391C32.1475 14.0391 31.2878 14.8988 31.2878 15.9592C31.2878 17.0196 32.1475 17.8791 33.2078 17.8791Z" fill="white"/>
<path fill-rule="evenodd" clip-rule="evenodd" d="M24.667 8.5C20.3217 8.5 19.7768 8.51842 18.0702 8.59628C16.3672 8.67396 15.2041 8.94446 14.1864 9.34001C13.1342 9.74884 12.242 10.2959 11.3524 11.1854C10.4629 12.075 9.91583 12.9673 9.507 14.0194C9.11145 15.0371 8.84095 16.2002 8.76328 17.9032C8.68541 19.6098 8.66699 20.1547 8.66699 24.5C8.66699 28.8453 8.68541 29.3902 8.76328 31.0968C8.84095 32.7998 9.11145 33.9629 9.507 34.9806C9.91583 36.0327 10.4629 36.925 11.3524 37.8146C12.242 38.7041 13.1342 39.2512 14.1864 39.6601C15.2041 40.0555 16.3672 40.326 18.0702 40.4037C19.7768 40.4816 20.3217 40.5 24.667 40.5C29.0123 40.5 29.5572 40.4816 31.2638 40.4037C32.9668 40.326 34.1299 40.0555 35.1476 39.6601C36.1997 39.2512 37.092 38.7041 37.9816 37.8146C38.8711 36.925 39.4182 36.0327 39.827 34.9806C40.2225 33.9629 40.493 32.7998 40.5707 31.0968C40.6486 29.3902 40.667 28.8453 40.667 24.5C40.667 20.1547 40.6486 19.6098 40.5707 17.9032C40.493 16.2002 40.2225 15.0371 39.827 14.0194C39.4182 12.9673 38.8711 12.075 37.9816 11.1854C37.092 10.2959 36.1997 9.74884 35.1476 9.34001C34.1299 8.94446 32.9668 8.67396 31.2638 8.59628C29.5572 8.51842 29.0123 8.5 24.667 8.5ZM24.667 11.3829C28.9392 11.3829 29.4452 11.3992 31.1324 11.4762C32.6924 11.5473 33.5395 11.808 34.1033 12.0271C34.8502 12.3173 35.3832 12.664 35.943 13.224C36.503 13.7838 36.8497 14.3168 37.1399 15.0637C37.359 15.6275 37.6197 16.4746 37.6908 18.0346C37.7678 19.7218 37.7841 20.2278 37.7841 24.5C37.7841 28.7722 37.7678 29.2782 37.6908 30.9654C37.6197 32.5254 37.359 33.3725 37.1399 33.9363C36.8497 34.6832 36.503 35.2162 35.943 35.776C35.3832 36.336 34.8502 36.6827 34.1033 36.9729C33.5395 37.192 32.6924 37.4527 31.1324 37.5238C29.4455 37.6008 28.9395 37.6171 24.667 37.6171C20.3945 37.6171 19.8886 37.6008 18.2016 37.5238C16.6416 37.4527 15.7945 37.192 15.2307 36.9729C14.4838 36.6827 13.9508 36.336 13.391 35.776C12.8311 35.2162 12.4843 34.6832 12.1941 33.9363C11.975 33.3725 11.7143 32.5254 11.6432 30.9654C11.5662 29.2782 11.5499 28.7722 11.5499 24.5C11.5499 20.2278 11.5662 19.7218 11.6432 18.0346C11.7143 16.4746 11.975 15.6275 12.1941 15.0637C12.4843 14.3168 12.831 13.7838 13.391 13.224C13.9508 12.664 14.4838 12.3173 15.2307 12.0271C15.7945 11.808 16.6416 11.5473 18.2016 11.4762C19.8888 11.3992 20.3948 11.3829 24.667 11.3829Z" fill="white"/>
</svg>
