<svg width="48" height="49" viewBox="0 0 48 49" fill="none" xmlns="http://www.w3.org/2000/svg">
<path d="M24 48.5C37.2548 48.5 48 37.7548 48 24.5C48 11.2452 37.2548 0.5 24 0.5C10.7452 0.5 0 11.2452 0 24.5C0 37.7548 10.7452 48.5 24 48.5Z" fill="black"/>
<path fill-rule="evenodd" clip-rule="evenodd" d="M10.864 24.2467C17.8605 21.1984 22.5259 19.1888 24.8603 18.2179C31.5253 15.4456 32.9103 14.9641 33.813 14.9482C34.0115 14.9447 34.4554 14.9939 34.743 15.2272C34.9858 15.4242 35.0526 15.6904 35.0845 15.8771C35.1165 16.0639 35.1563 16.4895 35.1247 16.822C34.7635 20.6169 33.2007 29.8263 32.4056 34.0767C32.0692 35.8752 31.4067 36.4783 30.7654 36.5373C29.3717 36.6655 28.3134 35.6162 26.9635 34.7314C24.8512 33.3467 23.6578 32.4848 21.6075 31.1336C19.2379 29.5721 20.774 28.7139 22.1244 27.3113C22.4778 26.9442 28.6186 21.3587 28.7374 20.852C28.7523 20.7886 28.7661 20.5524 28.6258 20.4277C28.4854 20.303 28.2783 20.3456 28.1289 20.3795C27.917 20.4276 24.5426 22.658 18.0055 27.0707C17.0477 27.7284 16.1801 28.0489 15.4028 28.0321C14.5459 28.0136 12.8975 27.5476 11.6721 27.1492C10.1691 26.6607 8.97456 26.4024 9.07858 25.5726C9.13276 25.1404 9.72791 24.6985 10.864 24.2467Z" fill="white"/>
</svg>
