<svg width="50" height="49" viewBox="0 0 50 49" fill="none" xmlns="http://www.w3.org/2000/svg">
<path d="M25.667 49C38.9218 49 49.667 38.2548 49.667 25C49.667 11.7452 38.9218 1 25.667 1C12.4122 1 1.66699 11.7452 1.66699 25C1.66699 38.2548 12.4122 49 25.667 49Z" fill="black"/>
<path d="M26.9616 35.3289C15.9131 35.3289 9.20795 27.6634 8.94727 14.9253H14.5431C14.7175 24.2824 18.9746 28.2533 22.2381 29.0627V14.9253H27.6025V22.9985C30.7503 22.6497 34.0431 18.9766 35.1524 14.9253H40.4268C39.5821 19.9096 35.9972 23.5826 33.461 25.0977C35.9972 26.3227 40.0779 29.5292 41.6518 35.3289H35.8522C34.6272 31.452 31.6244 28.4493 27.6025 28.0416V35.3289H26.9616Z" fill="white"/>
</svg>
